# xmcd
#
# Track frame offsets: 
#        150
#        16847
#        35129
#        57480
#        74936
#        94075
#        109261
#        125025
#        139787
#        157094
#        171125
#
# Disc length: 2538 seconds
#
# Revision: 0
# Processed by: cddbd v1.5.2PL0 Copyright (c) Steve Scherf et al.
# Submitted via: ExactAudioCopy v0.99pb4
#
DISCID=a809e80b
DTITLE=Graeme Connors - North
DYEAR=1900
DGENRE=Country
TTITLE0=A Little Further North
TTITLE1=Mango Shade
TTITLE2=Let The Cane Fields Burn
TTITLE3=So Father Uluru Says
TTITLE4=Sicilian Born
TTITLE5=Cyclone Season
TTITLE6=The Metho Man
TTITLE7=A Blessing In Disguise
TTITLE8=A Heartache (Or Two)
TTITLE9=The More I See Of You
TTITLE10=On The Edge Of Paradise
EXTD=
EXTT0=
EXTT1=
EXTT2=
EXTT3=
EXTT4=
EXTT5=
EXTT6=
EXTT7=
EXTT8=
EXTT9=
EXTT10=
PLAYORDER=
